<?xml version="1.0" encoding="utf-8"?>
<!-- Generator: Adobe Illustrator 23.0.3, SVG Export Plug-In . SVG Version: 6.00 Build 0)  -->
<svg version="1.1" id="logosvg.com" xmlns="http://www.w3.org/2000/svg" xmlns:xlink="http://www.w3.org/1999/xlink" x="0px"
	 y="0px" viewBox="0 0 400 300" style="enable-background:new 0 0 400 300;" xml:space="preserve">
<path id="logo" d="M181.501,112.995l-25.622,5.693l2.136,12.098l24.195-4.981l2.136,9.963l-24.195,4.981l0.712,4.27
	c1.423,5.693,3.558,6.404,8.539,5.693l19.214-4.27l2.136,9.963l-19.926,4.27c-9.251,2.136-17.791-0.713-19.925-12.098l-7.116-34.158
	c-0.712-2.846,0.71-4.27,2.846-4.981l32.735-6.405L181.501,112.995z M128.126,170.637c0-5.693-1.423-11.386-5.693-16.367
	l-20.638-24.907l-8.539,6.405l18.502,22.772c3.557,4.27,4.982,7.116,4.27,10.674c0,2.847-2.135,6.404-4.981,8.54
	c-2.846,2.134-6.404,3.556-8.54,4.27c-4.27,0-6.404-2.135-9.963-6.404l-18.502-22.772l-8.54,6.404l20.637,24.907
	c4.27,4.981,9.251,7.826,14.944,8.54c6.405,0.711,12.098-1.424,17.79-5.693C124.567,182.023,127.414,177.042,128.126,170.637z
	 M200,169.214c-38.428,0-71.874,16.367-95.358,43.409l6.404,5.693c22.06-24.907,53.372-40.563,88.953-40.563
	c35.582,0,66.893,15.656,88.953,40.563l6.404-5.693C271.874,186.293,238.428,169.214,200,169.214z M199.288,81.684
	c-60.488,0-113.86,24.907-152.288,64.758l5.693,5.693C90.409,113.707,142.358,90.223,200,90.223
	c57.642,0,110.302,23.483,147.307,61.911l5.693-5.693C313.86,106.591,259.777,81.684,199.288,81.684z M245.544,118.689l19.214,4.982
	l2.136-9.963l-19.926-4.981c-9.251-2.135-17.79,0-20.637,11.386l-8.539,33.447c-0.712,2.846,0.711,4.269,2.846,4.981l6.405,1.423
	l5.693-21.349l24.195,6.405l2.846-9.963l-24.195-6.405l1.423-4.981C238.427,117.976,240.562,117.266,245.544,118.689z
	 M315.995,140.749c-2.136-2.136-4.27-1.423-5.693,0l-46.967,30.6l9.962,5.693l33.447-22.06l-4.981,18.502l-4.27-3.558l-9.251,5.693
	l10.674,7.828l-2.846,10.674l8.54,7.828l15.656-53.372c0.712-2.136,0.712-3.558-1.423-5.693L315.995,140.749z"/>
</svg>
