<?xml version="1.0" encoding="utf-8"?>
<!-- Generator: Adobe Illustrator 23.0.3, SVG Export Plug-In . SVG Version: 6.00 Build 0)  -->
<svg version="1.1" id="logosvg.com" xmlns="http://www.w3.org/2000/svg" xmlns:xlink="http://www.w3.org/1999/xlink" x="0px"
	 y="0px" viewBox="0 0 400 300" style="enable-background:new 0 0 400 300;" xml:space="preserve">
<path id="black" d="M185.2,85.9L185.2,85.9c-0.1,0-0.1-0.1-0.2-0.1C185.2,85.9,185.1,85.8,185.2,85.9z M164.5,220.3
	C164.5,220.3,164.5,220.3,164.5,220.3l0.1-0.1h-0.2C164.4,220.4,164.3,220.2,164.5,220.3z M215.8,82.7c0,0-0.1-0.1-0.1-0.1
	c0,0,0,0.1-0.1,0.2C215.7,82.7,215.8,82.7,215.8,82.7z M144.9,97.4c0.1,0,0.1-0.1,0.2-0.1c0,0-0.1,0-0.1,0
	C145,97.3,145,97.3,144.9,97.4z M185.7,85.7c0.1,0,0,0,0.1,0H185.7z M162.4,215.1c0,0,0.1,0,0.1,0.1c0,0,0,0,0.1-0.1
	c0,0-0.1-0.1-0.1-0.1C162.4,215.1,162.4,215.1,162.4,215.1z M126.3,96.1c0,0-0.1,0-0.1-0.1c-0.1,0.3-0.1,0.5-0.2,0.8
	c0,0,0,0.1,0,0.1c0,0,0.1,0,0.1,0C126.2,96.6,126.2,96.4,126.3,96.1z M162.6,213.4c0.1,0.1,0,0.1,0.1,0H162.6z M163.1,221.5h0.2
	c0,0,0,0,0,0c-0.1-0.1-0.1-0.1-0.3-0.1C163.1,221.4,163.1,221.5,163.1,221.5z M123.5,104.2c0,0,0,0.1-0.1,0.1
	c0.1,0.1,0.1,0.1,0.2,0.2h0C123.7,104.2,123.7,104.3,123.5,104.2z M122.9,123.2c-0.1,0.2-0.1,0.4-0.1,0.6l19.1,44.2
	c0.1,0.2,0.3,0.4,0.5,0.4l0,0l7.6-0.2c0.2,0,0.4-0.1,0.5-0.3l19.6-45.4c0.1-0.2,0.1-0.4-0.1-0.6c-0.1-0.2-0.3-0.3-0.5-0.3l-8.8,0.3
	c-0.2,0-0.4,0.2-0.5,0.4l-12.8,29.6l-12.4-28.9c-0.1-0.2-0.3-0.3-0.6-0.4l-11.1,0.3C123.2,122.9,123,123,122.9,123.2z M177,167.5
	C177,167.5,177,167.5,177,167.5L177,167.5L177,167.5z M207.6,80.8c-0.1,0-0.1,0-0.1,0.1c0,0.1,0,0.1-0.1,0.2c0.3,0,0.5,0.1,0.8,0.1
	c-0.1-0.1-0.2-0.2-0.3-0.3C207.8,80.8,207.7,80.8,207.6,80.8z M213.4,79.7c0,0,0.1,0,0.1-0.1v-0.1c-0.1,0-0.2,0-0.3-0.1
	C213.3,79.6,213.4,79.6,213.4,79.7z M213.3,79.4c0,0,0.1-0.1,0.1-0.1h-0.1V79.4z M215,81.3c0,0.1,0,0.1-0.1,0.2c0.2,0,0.3,0,0.4,0
	C215.3,81.3,215.3,81.4,215,81.3z M213.9,78.2c0,0.1,0,0.1-0.1,0.2c0.2-0.1,0.1,0,0.2-0.2C213.9,78.2,213.9,78.2,213.9,78.2z
	 M187.3,85.7c-0.1,0-0.2,0.1-0.3,0.1c0,0,0,0.1,0,0.1c0.2,0,0.4,0,0.5,0.1c0,0,0,0,0-0.1C187.4,85.7,187.5,85.7,187.3,85.7z
	 M188.3,86.2c-0.1-0.1-0.1-0.1-0.3-0.1c0,0,0,0.1-0.1,0.1c0.1,0,0.2,0.1,0.3,0.1h0.1C188.3,86.2,188.3,86.2,188.3,86.2z M191.3,82.8
	c0,0.2,0,0.1,0.1,0.3c0,0,0.1-0.1,0.1-0.1C191.4,82.9,191.4,82.8,191.3,82.8z M191.6,83.1c0,0,0.1-0.1,0.1-0.1h-0.1V83.1z
	 M207.2,82.1c0.9,0.2,4.5,1,4.8,1.3c-0.1,0-0.1,0-0.2,0c0.4,0.2,0.7,0.3,1.1,0.4c0.1-0.1,0.1-0.1,0.1-0.3c0.2,0.1,0.5,0.2,0.7,0.3
	c-0.4,0.2-0.9,0.3-1.7,0.3c0,0.1,0,0.1-0.1,0.2c1.1,0.4,2.1-0.1,3-0.4c0.1,0.1,0.2,0.2,0.2,0.3c0,0.4-0.3,0.6-0.5,0.8
	c0.1,0.2,0,0.2,0.2,0.3c0.3-0.1,0.5-0.2,0.8-0.2c-0.1,0.2-0.1,0.3-0.2,0.6c0.3,0.1,0.5,0.1,0.8,0.2c0.4-0.2,0.5-0.6,0.9-0.9
	c0-0.1,0-0.3-0.1-0.4c-0.3-0.1-0.3,0.2-0.8,0.2c0-0.1,0-0.2,0-0.2c0.2-0.2,0.3-0.4,0.6-0.5c0,0,0-0.1,0.1-0.1c0,0,0,0-0.1-0.1
	c-0.7,0-0.8,0.2-1.2,0.5c0-0.1-0.1-0.2-0.1-0.2c-0.1,0,0,0.1-0.2-0.1c0.4-0.3,1.1-0.5,1.3-0.7c0,0,0.1-0.1,0.1-0.1
	c-0.2-0.2-0.8-0.2-1.2-0.2c0.1-0.3,0-0.1-0.1-0.5c0.3-0.1,0.4-0.1,0.6-0.3c-0.4-0.3-0.9-0.6-1.4-0.6c-0.2-0.2,0-0.3-0.4-0.5
	c-0.2,0.1,0,0.1-0.2,0.1c0,0.1-0.1,0.1,0.1,0.2c-0.1,0-0.2,0-0.3,0c-0.3,0-0.2,0-0.2-0.3c-0.3,0-0.2,0-0.2,0.1
	c-0.2-0.1-0.3-0.2-0.5-0.2c0-0.1,0.1-0.1,0.1-0.2c-0.2-0.1-0.1-0.1-0.3,0c0,0-0.1-0.1-0.1-0.1c0-0.1,0-0.1,0-0.2c0.2,0,0.4,0,0.6,0
	c0,0,0,0,0-0.1c-0.3-0.2-0.7-0.2-1-0.5c-0.3,0.1-0.6,0.3-1,0.4c0.2-0.5,1.1-1,1.6-1.1c0.1-0.1,0.2-0.2,0.2-0.3
	c-0.2-0.1-0.2-0.2-0.4-0.2v-0.1v-0.1c0.3,0.1,0.5,0.2,0.8,0.1c0,0,0.1-0.1,0.1-0.1c0-0.1,0-0.1,0.1-0.2c-0.3-0.1-0.6-0.2-0.9-0.3
	c-0.3,0-0.7,0-1,0c-0.2,0-0.8,0.4-1.1,0.5c-0.6,0.3-0.8,1-1.6,1.2c-0.1,0.2-0.1,0.2,0,0.4v0.1c-0.2,0-0.2,0-0.3-0.1
	c-0.3,0.1-0.5,0.3-0.7,0.5c0.1,0.1,0.2,0.2,0.3,0.3c-0.5-0.1-1,0.2-1.5,0.3C207.1,81.7,207.1,81.9,207.2,82.1z M194.9,82.7h-0.2
	c-0.1,0.1-0.1,0.1-0.2,0.2c0,0,0.1,0,0.1,0.1C194.8,82.8,194.8,82.9,194.9,82.7z M176.3,121.7c-0.1,0.1-0.2,0.3-0.2,0.4l0.3,44.8
	c0,0.3,0.3,0.6,0.6,0.6v0h0l36.1,0c0.2,0,0.3-0.1,0.4-0.2c0.1-0.1,0.2-0.2,0.2-0.4l0-8.8c0-0.3-0.3-0.6-0.6-0.6l-25.3,0l0-8.4
	l16.8,0c0.2,0,0.3-0.1,0.4-0.2c0.1-0.1,0.2-0.3,0.2-0.4l0-8.8c0-0.3-0.3-0.6-0.6-0.6l-16.8,0l0-7.8l25,0c0.2,0,0.3-0.1,0.4-0.2
	c0.1-0.1,0.2-0.3,0.2-0.4l0-8.7c0-0.3-0.3-0.6-0.6-0.6l-35.9,0C176.6,121.5,176.4,121.6,176.3,121.7z M281.3,109.5
	c0.1,0.1,0.1,0.1,0.2,0.2v-0.2c-0.1-0.1-0.2-0.1-0.3-0.2C281.3,109.3,281.3,109.4,281.3,109.5z M283.4,112.1c0,0,0.1-0.1,0.1-0.1
	c-0.1-0.1-0.2-0.2-0.2-0.2C283.3,111.9,283.4,112,283.4,112.1z M281.2,106.1c0.1-0.1,0.1-0.1,0.2-0.1c-0.1-0.1-0.2-0.2-0.3-0.3
	c0,0.1,0.1,0.2,0.1,0.3c-0.1-0.1-0.1-0.1-0.2-0.2C281.1,105.9,281.2,106,281.2,106.1z M281.1,109c0.1,0,0.1,0,0.2,0.1
	c0,0,0-0.1,0-0.1c-0.1-0.2-0.2-0.4-0.4-0.6v0.4C281,108.9,281,108.9,281.1,109z M280.1,106.8c-0.1-0.1-0.1-0.2-0.2-0.3
	C279.9,106.6,280,106.7,280.1,106.8z M128.2,84.3c-0.1,0.3-0.2,0.5-0.4,0.8c-0.2,0.2-0.4,0.4-0.6,0.7c-0.1,0.3-1.1,2.7-1.1,2.8
	c0.2,0,0.3,0,0.5,0c-0.1,0.7,0.3,0.7,0.2,1.6c-0.3,1.3-1.2,2.8-1.6,4.3c-0.1,0.3-0.4,1-0.3,1.4c0.1,0.5,0.3,1.1,0.1,1.7
	c-0.2,0.3-0.4,0.7-0.6,1.1c-0.3,0-0.3,0.1-0.6,0c0,0,0,0,0,0c-0.1,0.7,0.2,1.2,0.2,1.8c0.2,0,0.1,0,0.2-0.1c0.4,1.1,0.2,2.3-0.6,3.1
	c0.2,1.1,0.8,1.6,0.6,3.3v0.1c0,0,0.1,0,0.1,0c1-1,0.7-0.9,0.8-2.2c0-0.1-0.1-0.2-0.1-0.4c-0.1,0.1-0.2,0.2-0.2,0.3c0,0,0,0-0.1,0
	c-0.1-0.8,0.7-2.9,0.9-3.8c0.1-0.6-0.2-1.6-0.1-2.2c0.4-1.6,0.5-5,1.9-6c0.1,0.1,0.1,0.2,0.2,0.3c0.1,0,0.1-0.1,0.2-0.1
	c0.3,0.9-0.9,2.3-0.7,3.6c-0.3,0.2-0.4,0.4-0.6,0.7c0,0,0.1,0.1,0.2,0.1c0.1-0.1,0.2-0.2,0.3-0.3c0,0.3-0.2,1.3,0.1,1.6
	c0.1,0.1,0,0.1,0.2,0c0,0,0.1,0.1,0.1,0.1c-0.2,0.4-0.3,0.5-0.3,1.1c0.1,0.1,0.1,0.1,0.3,0.1c-0.1,0.2-0.1,0.4-0.2,0.7
	c0.1,0,0.2,0,0.3,0c0,0.7-0.3,0.9-0.6,1.4c0.1,0.6,0.4,0.8,0.7,1.3c-0.2,0.2-0.2,0.4-0.3,0.7c0.5,0.7,1.2,5.4,0.2,6.1
	c-0.2,0.3-0.2,0.3-0.1,0.6c-0.2,0.2-0.3,0.2-0.5,0.3c-0.7,1.8,0.9,2.3,0.9,3.8c0.1,0.1,0.2,0.2,0.4,0.2c0,0,6-0.2,9.5-0.3
	c0.1,0-0.3-0.1-0.4-0.3c-0.2-0.1-0.8-3.8-0.7-4.3c0.1-0.2,0.3-0.4,0.4-0.6c-0.5-1.1,0.3-2.3,0.7-3.3c0.4-0.9,0.7-1.8,1.1-2.7
	c0.3-0.4,1-0.3,1.2-1.1c0.1-0.5-0.1-1,0.2-1.6c0.2-0.6,0.9-0.8,0.8-1.5c0.3,0,0.9-0.2,1-0.5c0.1-0.1,0.1-0.2,0.2-0.3
	c0,0.2,0,0.1-0.1,0.3c0.3-0.1,0.2-0.2,0.3-0.1c0.1-0.1,0.1-0.2,0.2-0.3c-0.1-0.1-0.1-0.2-0.2-0.2c0.9,0.1,1.6-0.3,2.4-0.7
	c0.5,0.1,0.3-0.2,0.3-0.5c0.1-0.1,0.2-0.2,0.4-0.3c0,0,0,0.1,0,0.1c-0.1,0.1-0.1,0.2-0.2,0.2c0.1,0,0.1,0.1,0.2,0.1
	c0.2,0.2,1.1-0.3,1.6-0.2c0.5,0.1,1.6,0.5,1.9,0.7c0.1,0,0.1,0,0.2,0v-0.2c-0.1,0-0.2,0-0.4,0c0-0.1,0-0.1-0.1-0.2
	c0.2,0,0.3-0.1,0.4-0.1c0,0.2,0.3,0.5,0.5,0.7c0,0-0.1,0-0.1,0.1c0,0.1-0.1,0.1-0.1,0.2c0.2,0.1,0.3,0.3,0.5,0.4
	c0.3-0.1,0.5-0.2,0.7-0.3c0,0.1,0.1,0.2,0.1,0.4c0.4-0.1,0.4-0.3,0.6-0.5c0.2,0.2,0.4,0.6,0.7,0.7c0.1,0,0.1,0.1,0.2,0.1h0.1
	c0.1-0.1,0.1-0.2,0.2-0.3c-0.2-0.2-0.4-0.3-0.5-0.5c0,0-0.1-0.1-0.1-0.1c0.2-0.2,0.3-0.2,0.6-0.3c0.1-0.2,0.1-0.2,0.1-0.5
	c-0.1,0.1-0.3,0.2-0.4,0.2h-0.1c0-0.1-0.1-0.1-0.1-0.2c0.8-0.5,1.8-0.4,2.7-0.2c0.1-0.1,0.1-0.3,0.2-0.4c0.1,0,0.1-0.1,0.2-0.1
	c0,0.2,0,0.5,0,0.7c1.2,0.1,2.1-0.3,3,0.6c0.2,0.2,0.2,0.6,0.3,0.7c0.4,0.3,1.5-0.3,2.1-0.3c0.2,0.3,0.8,1.6,1.1,1.7
	c0.4,1-0.8,1.5-0.7,2.3c0,0,0.1,0,0.1,0c0.2-0.2,0.2-0.2,0.1-0.4c0,0,0.1,0,0.1-0.1c0.1,0.3,0,0.2,0.3,0.3c-0.2,0.2-0.4,0.3-0.6,0.5
	c-0.1,0.2,0.1,0.7,0.1,1.2c0.1,0.1,0.2,0.1,0.3,0.1c0-0.1,0.1-0.2,0.1-0.2c0,0,0,0.1,0.1,0.1c-0.2,0.3-0.2,0.4-0.4,0.6
	c0.1,0,0.1,0,0.2-0.1c0.1,0.2,0.2,0.3,0.1,0.6c0,0.8,0.9,0.8,0.5,1.7c0.3,0.4,1.3,0.2,1.5,0.2c0-0.7,0.8-1.4,1.1-2c0.4-0.8,0-2,0-3
	c0.1,0,0.2-0.1,0.3-0.1c-0.1-0.7-0.3-1.5-0.4-2.3c0.3-2.9,2.6-3.6,4.9-4.3c1.1-0.3,0.7-1.3,2.7-0.9c0.5-0.9,2.2-0.8,3.2-1
	c0,0,0-0.1,0.1-0.1c-0.2-0.1-0.2-0.1-0.3-0.3v-0.1c0.3-0.2,1.1-0.3,1.4-0.3c0.1-0.2,0.2-0.3,0.3-0.4c-0.2-0.3-0.6-0.4-1-0.4v-0.1
	c0.4,0.1,0.7,0.1,1,0.2c0,0.1,0,0.3,0,0.4c0,0,0.2-1.1,0.2-1.7c-0.1,0-0.2-0.1-0.3-0.1c-0.2-0.1,0,0,0-0.3c0-0.2,0.4-0.8,0.6-1
	c-0.2-0.1,0-1,0-1.3c0.3-0.2,0.5-0.4,0.8-0.7c-0.6,0.9-0.3,0.9-0.5,1.9c0.2,0,0.3,0.1,0.5,0.2c-0.3,0.3-0.6,0.4-0.8,0.8
	c0,0,0,0.1-0.1,0.1c0.1,0.1,0.1,0.1,0.3,0.1c0.3-0.6,1.6-1.1,2.1-2c-0.3-0.4-0.2-0.6-0.3-1c0.2,0.2,0.3,0.4,0.7,0.5
	c-0.1,0.1-0.2,0.2-0.2,0.3v0c0.8,0.1,2-1,2.3-1.5c-0.1-0.2,0-0.1-0.2-0.2c0,0,0-0.1,0-0.1c1-0.1,2.4,0.2,3.4,0.1
	c-0.1-0.1-0.2-0.2-0.3-0.3c-0.8,0.1-1.5-0.2-2.3,0c1-0.8,3.9,0.3,5.2-0.2c0.1,0.3,0.4,0.3,1.1,0.3c0.1-0.1,0.1-0.2,0.2-0.3
	c0-0.1-0.1-0.2-0.2-0.3c-0.1,0.3,0,0.3-0.3,0.3c-0.1,0-0.3,0-0.4-0.1c-0.1-0.3,0-0.8-0.5-0.9v-0.1c0.3-0.1,0.5-0.1,0.8-0.2
	c-0.1-0.1-0.2-0.2-0.2-0.3c0.4-0.5,1.1-0.7,1.5-1c0.8,0.2,1.4,0.2,2.2-0.3c0.1,0.2,0.1,0.1,0.1,0.3c1-0.1,2,0,3.1-0.3
	c-0.1-0.1-0.1-0.2-0.2-0.3c0.1,0,0.7,0.2,0.9,0.2c0.8,0.2,2.4,0,3.1-0.2c0,0,0.1,0.1,0.1,0.1c-0.3,0.1-0.5,0.1-0.8,0.2
	c0,0,0,0.1-0.1,0.1c0.3,0.1,0.6,0.1,0.9,0.2c-1,0.2-2.1,0.3-3.1,0.5c0,0,0,0.1-0.1,0.1c0.1,0,0.2-0.1,0.4-0.1
	c-0.1,0-0.2,0.1-0.2,0.1c-0.3,0.3-0.3,0.3-0.3,0.9c0.1,0,0.2,0,0.3,0c0.2,0.3,0.1,0.5,0.5,0.5c0.7,0,1.5-0.5,2.3-0.5
	c0.1-0.2,0-0.3,0.3-0.4c0.1,0.1,0.1,0.1,0.1,0.2c0.1-0.1,0.1-0.1,0.2-0.2c0.1,0.3,0.2,0.3,0.5,0.4c0.5-0.5,3.3,0.1,4.2-0.1
	c0,0,0.1,0,0.1,0c-0.2-0.2-0.3-0.2-0.7-0.2c0.1-0.1,0.2-0.1,0.3-0.2c0.7,0.2,1.4,0.1,2.3,0.1v-0.2c0.1-0.3-0.4-0.6-0.8-0.6v-0.1
	c0.1-0.2,0.3-0.3,0.4-0.5c-0.1-0.2-0.1-0.1-0.1-0.3c-0.1,0-0.2-0.1-0.3-0.1c-0.5,0.3-1.8,0.6-1.8,1.3c-0.4,0.1-0.6,0-0.6-0.4
	c-1.2,0.1-1.7-0.5-2.8-0.6c-0.1-0.1-0.2-0.2-0.2-0.3c0.1,0,0.1,0,0.2,0c0,0,0-0.1,0.1-0.1c-0.3-0.1-0.7-0.3-1-0.4
	c-0.2-0.1-0.3-0.6-0.5-0.9c0.1-0.1,0.2-0.1,0.3-0.2c-0.1-0.1-0.3-0.2-0.6-0.2v-0.1c0.6-0.1,0.8-0.4,1.4-0.6c0-0.1,0.1-0.1,0.1-0.2
	v-0.1c-0.6,0.2-1,0.1-1.8,0.1c-0.1-0.4-0.4-0.5-0.8-0.6c0,0,0-0.1-0.1-0.1c0.7,0.1,1,0.4,1.6,0.5c0.6-0.1,1.1-0.1,1.7-0.2
	c0-0.1,0-0.1,0-0.2c0.2-0.1,0-0.1-0.1-0.3c0.1,0,0.2,0.1,0.2,0.1v-0.1c-1.3-1.8-6-1.1-8-0.8c-0.8,0.2-1.4,0.9-2.4,0.9
	c0.5-0.4,3.3-1.5,4.2-1.8c0,0,1.8,0.1,1.9,0.1c0.2-0.2,0.3-0.4,0.5-0.5c0.7-0.4,1.8-0.2,2.8,0c1.3,0.4,2.4,0.5,3.7,0.9
	c0.8,0.3,3.1,1.2,3.9,1.1c0.6-0.1,1.2-0.3,1.7-0.5c1.3-0.5,3.9,0.8,4.8-0.2c0.1-0.2,0,0-0.1-0.3c0,0,0.1,0,0.1,0.1
	c0.2-0.3,0-1.1,0.2-1.4c-0.3-0.1-0.6-0.2-0.9-0.4c0-0.2,0,0,0.1-0.2c-0.6,0-0.6-0.2-1-0.2c-0.1-0.6-0.7-0.8-1.3-0.9v-0.1
	c0.5,0.1,0.9,0.1,1.4,0.2c-0.3-0.4-0.9-0.4-0.9-0.8c-0.4-0.1-0.8,0-1.2-0.3c-0.2-0.1-0.1-0.1-0.2-0.3c-0.2-0.2-0.8-0.1-1-0.3
	c-0.2-0.2-0.3-0.4-0.6-0.6c-0.1-0.2-0.1-0.1,0.1-0.3c0-0.1-1-0.8-1.4-0.9c0.2-0.2,0.1-0.1,0.3-0.1c0-0.1,0-0.4,0.1-0.8
	c-0.1-0.1-0.2-0.1-0.4-0.2c0,0,0.1-0.3,0.1-0.6c-0.5-0.2-1-0.4-1-1h-0.3c-0.3-0.5-1.6-2.1-1.5-2.6c-1.3,0.4-3,2.5-4.8,1
	c-0.3,0-0.5-0.4-1.1-0.5c0-0.2,0-0.3-0.1-0.5c-0.1,0-0.2,0-0.4-0.1c0.2-0.4,0.3-0.5,0.3-1.1c0.2-0.1,0.4-0.1,0.6-0.2
	c0-0.1-0.1-0.2-0.2-0.2c-0.2,0.1-0.3,0.1-0.5,0.2c-0.4-0.4-1.1-0.6-1.8-0.7c0,0,0-0.1,0-0.1v-0.1c0.1-0.1,0.1-0.1,0.3-0.1v-0.1
	c-0.4-0.4-1.3-1-1.8-1.2c-0.5,0-0.9,0-1.3,0c-1.1-0.4-2.2-0.8-3.3-0.8c-0.1,0.1-0.2,0.2-0.3,0.3c0,0.1,0,0.1-0.1,0.2
	c0.1,0.1,0.1,0.1,0.3,0.2c-0.2,0.3-0.5,0.4-1,0.5c0.4,0.5,0.1,0.5,0.4,0.9c-0.2,0.2-1.5,0.7-2,0.7c-0.1,0.1-0.1,0.2-0.2,0.3
	c0.7,0.2,1.3,0.7,1.3,1.6c-0.6,1.2-1.9,1.4-3.4,1.7c-0.6,0-1.1,0-1.7,0.1h-0.1c0,0.2,0,0.5,0.3,0.7c-0.3,0.6-0.9,1.2-0.5,1.8
	c-0.3,0.2-0.7,0.5-1,0.5c0,0.2,0,0.3,0,0.5c-0.1,0-0.1,0-0.2,0.1c0-0.2-0.1-0.2-0.2-0.4c-0.4,0.1-0.7,0.2-1,0.4
	c-0.2-0.1-0.4-0.2-0.5-0.3c-0.2-0.8-0.7-1.4-1.1-2.1c0.3-0.3,0.5-0.5,0.7-0.8c0-0.1,0-0.3-0.1-0.4c0.3-0.3,0.6-0.5,0.9-0.9
	c-1.1-0.1-4.3-1.1-4.9-1.7c-0.2-0.2-0.3-0.7-0.6-0.9c-0.5-0.2-1-0.5-1.5-0.7c-0.6,0-1.1,0-1.7,0h-0.1c0.4-0.4,0.6-1,1-1.5
	c-0.3-0.1-0.7-0.2-1.1-0.1c0-0.1,0-0.2,0-0.2c1.1-1.2,4.4-2.5,5.9-2.4c-0.1-0.1-0.2-0.2-0.2-0.2c0.5,0,1.1,0.1,1.7,0
	c0.2-0.2,0.2-0.3,0-0.4c0.1,0,0.2,0,0.2,0c1.1,0.1,3.4,0,4.5-0.5c0.1-0.1,0.1-0.1,0-0.1c0.8-0.1,1.5-0.2,2.3-0.2c0,0,0,0.1-0.1,0.1
	c-1-0.1-2.1,0.4-2.4,1.1c-0.5,0-1,0-1.2,0.2c0.3,0.2,1,0.1,1.4,0.2c-0.1,0-0.2,0.1-0.2,0.2c-0.1,0.1-0.1,0.2-0.2,0.3
	c0.8,0.1,2-0.1,2.6-0.4c0.3,0.1,0.6,0.2,0.9,0.3c-0.1,0-0.2,0.1-0.3,0.1c0.5,0.4,1.4,0.4,2.4,0.4c-0.1-0.1-0.1-0.2-0.2-0.3
	c-0.3-0.1-0.6-0.2-1-0.2c0.1-0.1,0.1-0.3,0.2-0.4c-0.4-0.3-1.3-0.5-1.5-0.9c-0.2-0.2,0-0.4-0.2-0.5c0.1,0,0.2,0,0.3,0
	c0.3,0.2,0.7,0.5,0.9,0.6c0.1-0.1,0,0,0.1-0.1c0,0,0,0,0.1-0.1c-0.1,0-0.1,0-0.2,0.1c-0.1-0.2-0.1-0.2-0.4-0.4v-0.1
	c0.2,0.1,0.4,0.2,0.5,0.2c0-0.1,0-0.2,0-0.3c0.1,0,0.1,0,0.2,0c0.1,0.1,0.3,0.2,0.4,0.3v-0.1c0.8-0.2,1.6-0.2,2.3-0.4
	c1.6-0.1,3.3-0.2,5-0.2c0.3,0.1,1.2,0.1,1.4,0.1c0,0,0,0.1,0.1,0.1c-0.2,0.1-0.3-0.1-0.5,0H196c0.2,0.4,0.5,0.3,0.8,0.2
	c0.1,0.1,0.1,0.3,0.2,0.4c-0.2-0.1-0.4-0.1-0.7-0.1c0.1,0.4,0.8,0.4,1.2,0.5c0-0.1,0-0.2,0.1-0.2c-0.2,0-0.4-0.1-0.5-0.1
	c0-0.1,0-0.2,0.1-0.3c0.3,0.1,0.5,0.3,0.9,0.4c0.1,0.3,0.2,0.5,0.3,0.8c-0.8,0.1-1.7,0.2-2.5,0.3c0,0,0,0.1-0.1,0.1
	c0.2,0.2,0.4,0.3,0.5,0.5v0.1c-0.6-0.2-1.2,0-1.8-0.1c-1.2-0.2-2.1-0.8-3.2-0.1c0,0.1,0,0.1,0.1,0.2c0.3,0.6,1.4,0.4,2,0.5
	c0.7,0.1,1.6,0.2,2.3,0.5c0.7,0.3,0.9,0.8,1.7,0.9c-0.2,0.1-0.3,0.1-0.5,0c0.2,0.3,0.4,0.5,0.9,0.6c-0.1,0-0.1,0.1-0.2,0.1
	c0.2,0.2,0.3,0.3,0.6,0.5h0.2c-0.1-0.2,0-0.2-0.2-0.3v0c1.5,0.5,3,1.6,4.8,1.9c0.1-0.2,0-0.1,0.2-0.2v-0.1c-0.5-0.7-1.8-1.4-2.6-1.8
	c0-0.1,0-0.1-0.1-0.2c0.3,0.2,0.7,0.4,1,0.5v-0.2c1,0.6,2.1,1.3,3,1.8c0.1,0,0.2,0,0.3,0h0.1c0,0,0,0,0-0.1
	c-0.3-0.2-0.5-0.2-0.7-0.5c0.2,0.1,0.3,0.1,0.4,0.2c0,0,0,0,0.1,0c0-0.2,0-0.2-0.2-0.4c0,0,0-0.1,0.1-0.1c0.1,0.1,0.1,0,0.2,0.2
	c0.3,0,0.2-0.1,0.4-0.2c0.1,0.2,0.1,0.2,0.3,0.3h0.1c0-0.1-0.1-0.1-0.1-0.2h0.4c0,0,0-0.1,0-0.1c-0.3-0.2-0.6-0.4-1-0.5
	c0,0,0-0.1-0.1-0.1c0.1,0,0.2,0,0.3,0V63c-0.3-0.3-1.2-1-1.9-0.9c0-0.3-0.2-0.7-0.5-0.8h0.4c0,0,0-0.1,0.1-0.1
	c-0.1-0.1-0.1-0.1-0.2-0.2c0.7,0.1,1.3,0.6,1.9,0.6c-0.2,0.7,1.2,0.9,1.6,1.3c0.4-0.1,0.3-0.2,0.6-0.2c-0.1,0-0.1-0.1-0.2-0.1
	c0.1-0.2,0-0.1,0.2-0.2c0.3,0.1,0.5,0.2,0.8,0.1v0.2c0.1,0,0.3,0,0.4,0c0-0.1-0.1-0.1-0.2-0.2c0.2-0.1,0,0,0.2,0c0.1,0,0.1,0,0.2,0
	c-0.1-0.1-0.1-0.2-0.2-0.3c0.5,0.1,0.7,0.1,1.1,0c-0.1-0.4-0.7-0.6-1.3-0.6c-0.1-0.1,0-0.1,0.2-0.1c-0.2,0-0.4,0-0.5,0
	c-0.2-0.1-0.3-0.4-0.9-0.4c0.1-0.1,0-0.1,0.2-0.1c-0.2-0.2-0.7-0.4-1-0.4c0,0-0.1-0.1-0.1-0.1c0.1,0,0.1-0.1,0.2-0.1
	c-0.6-0.1-0.7-0.3-1.1-0.1c-0.3-0.3-0.3-0.4-0.8-0.5c0-0.1,0.1-0.1,0.1-0.2c-0.4-0.1-0.8-0.2-1.3-0.3v-0.1c0.1,0,0.2,0,0.3-0.1
	c0-0.2,0-0.1-0.1-0.3c0.4,0.1,0.8,0.2,1.2,0.3c0,0,0.1-0.1,0.1-0.1c-0.2-0.2-0.6-0.4-1-0.4c0,0,0-0.1,0-0.2c0.2,0.1,0.4,0.1,0.6,0.2
	c0,0,0,0,0.1,0v-0.2c-0.5-0.4-0.6-0.4-1.3-0.3c0.2-0.2,0.2-0.2,0.5-0.2c0,0,0,0,0-0.1c0,0-0.1,0-0.1-0.1c1.5,0.1,3,0.2,4.5,0.4
	c0,0,0,0,0,0.1c0.8,0.2,1.5,0.5,2.6,0.4v-0.1c0,0-0.1,0-0.1-0.1c0.1,0,0.2,0,0.4,0c0.1,0.1,0.3,0.2,0.4,0.2c0.1-0.1,0.1-0.1,0.2-0.1
	c-0.2,0.3-0.4,0.4-0.3,0.7c-1.1-0.2-2-0.6-2.4,0.7c0.1,0.1,0.3,0.2,0.4,0.3c-0.1,0-0.2,0.1-0.3,0.1c0,0.1,0,0.2-0.1,0.3
	c0.5,0.4,0.7,0.6,1.3,0.9c0,0.2,0.1,0.4,0.1,0.7c0.1,0.1,0.1,0.1,0.3,0.1c0.2,0.2,0.1,0.4,0.2,0.6c0.3,0.4,1.5,1,1.8,1.4
	c0.1,0.1,0,0.3,0.2,0.5c0.4,0.3,0.9,0.5,1.3,0.8c0.1,0.1,0,0,0,0.1c0.8,0.4,2.1,0.4,2.8,0.8c0.1,0.1,0.1,0.1,0.1,0.3
	c0.7,0.2,1.5,0.4,2.2,0.6c0,0,0.1,0,0.2,0c0.1-0.2,0-0.2,0-0.4c0.4-0.2,0.5-0.7,0.9-1.1c-0.2-0.3-0.2-0.3-0.2-0.7
	c0.6-0.1,0.8-0.4,1.3-0.5c-0.1-0.3,0-0.4-0.3-0.5c0.1-0.1,0.1-0.1,0.3,0c0.1-0.1,0.1-0.1,0.2-0.2c-0.2-0.1-0.3-0.3-0.5-0.4h-0.1
	v-0.1c0.3,0.1,0.6,0.1,0.9,0.1c0,0,0.1,0,0.1-0.1c-0.1-0.1-0.1-0.2-0.2-0.3c0,0,0,0,0-0.1c0.4,0.2,0.7,0.2,1.3,0.3
	c0-0.1,0.1-0.3,0.1-0.4c0.1,0,0.2,0,0.3,0c-0.1,0.1-0.2,0.3-0.3,0.4c0,0,0,0.1,0.1,0.1c1.3,0.3,2.1-0.2,3.3-0.4v-0.3
	c0.9-0.3,2.1,0,3.1,0.2c3.4,1.1,6.6,2.4,9.8,3.9c-0.4-0.1-0.8-0.3-1.2-0.4c0,0,0,0-0.1,0.1c0,0.1,0.1,0.2,0.1,0.2
	c-0.3-0.2-0.5-0.4-0.9-0.5v0.1c0.1,0.1,0.2,0.2,0.3,0.3v0.1c-0.3-0.1-0.2-0.1-0.4,0c-0.6-0.5-1.1-1.2-2.1-1.3
	c0.1,0.1,0.2,0.2,0.3,0.3c-0.2-0.1-0.3-0.1-0.4-0.2c-0.1,0.1-0.3,0.2-0.4,0.4c0,0,0,0.1-0.1,0.1c0.7,0.2,1.4,0.4,2.1,0.5
	c-0.3,0.3-0.7,0.2-1.3,0c0,0,0,0.1-0.1,0.1c0,0,0,0.1,0.1,0.1c1,0.2,1.4,0.5,2,0.8c0,0,0,0.1,0.1,0.1c-0.2-0.1-0.4-0.1-0.5-0.1
	c0,0,0,0-0.1,0.1c0,0.1,0.1,0.2,0.1,0.2c1.5,0.4,5,2.1,6.2,0.8c3.7,1.9,7.2,4,10.6,6.2c0,0-0.1,0-0.2,0.1c0,0.3,0,0.3,0.1,0.5
	c-0.2,0.1-0.3,0.1-0.5,0.2c0.2,0.3,0.5,0.5,0.6,0.7c0,0.2,0.1,0.4,0.1,0.6c0.5,0.7,1.5,1.1,1.9,2c0.3,0.1,0.2,0,0.4-0.1
	c0.1,0.2,0.2,0.4,0.2,0.7c0.3,0.3,1.7,1.1,2.2,0.8c0.2-0.1,0.3-0.5,0.2-0.8c0.1-0.1,0.2-0.1,0.3-0.2c0-0.1-0.1-0.2-0.1-0.2V79
	c1.5,0.7,2.2,2.6,3.8,3.2c0.1,0.2,0.2,0.4,0.2,0.6c-0.2,0.1-0.3,0.3-0.4,0.4c0.3,0.4,0.6,0.7,1.1,0.9c-0.1,0.2-0.1,0.1-0.4,0
	c0,0,0,0,0,0.1c0.1,0.2,0.2,0.3,0.4,0.4c0.1,0,0.2,0,0.3,0v-0.4c-0.1-0.2-0.3-0.5-0.6-0.6c0-0.2,0,0,0.1-0.2
	c-0.1-0.1-0.2-0.3-0.3-0.4c0.3,0.2,0.5,0.4,0.6,0.7c0.2,0,0.4,0,0.6,0c0,0,0,0,0.1,0v-0.2c-0.2-0.2-0.3-0.4-0.4-0.5
	c0-0.1,0.1-0.1,0.1-0.1c0.8,0.7,1.6,1.4,2.3,2.1c0,0,0,0.1,0,0.2c-0.1,0-0.2,0.1-0.3,0.1c-0.4,0.4-0.5,0-0.9,0
	c-0.2-0.2-0.1-0.1-0.1-0.3c-0.2-0.1-0.3-0.3-0.5-0.4c0,0.1,0,0.2,0,0.3c-0.1,0-0.2,0-0.3-0.1c0.1,0.3-0.1,0.2-0.2,0.6
	c-0.1,0-0.2,0-0.3-0.1c-0.1-0.1-0.2-0.4-0.2-0.5c-0.1-0.1-0.1-0.1-0.3-0.2c0,0.1,0.1,0.1,0.1,0.2c-0.4,0-0.8-0.4-1.1-0.6
	c-0.1,0,0,0,0-0.1c-0.1-0.1-0.2-0.2-0.5-0.2c0,0,0-0.1,0-0.1c0,0,0-0.1,0-0.1c0.4,0.2,0.7,0.4,1.1,0.6c-0.2-0.5-0.7-1.2-1.3-1
	c-0.1-0.2-0.2-0.5-0.3-0.8c0.1,0.1,0.1,0.1,0.2,0.1c0-0.1,0-0.2,0-0.2c-0.5-0.6-1.2-0.9-1.5-1.7c-0.1,0.1-0.2,0.1-0.3,0.2
	c0,0.1,0.1,0.3,0.1,0.4c-0.1,0-0.1,0-0.2,0c-0.1,0.1-0.2,0.1-0.3,0.1c0.2,1,2.1,2.4,2,2.8c0.1,0,0.3,0.1,0.4,0.1
	c0.2,0.4,0.5,0.6,0.7,1c-0.2,0.1-0.1,0-0.1,0.3c-0.3-0.1-0.4-0.2-0.8-0.1v0.3c-0.2,0-0.5,0.1-0.7,0.1c0,0.1-0.1,0.2-0.1,0.2
	c0.1,0.1,0.1,0.2,0.2,0.4c0.2,0.1,0.2,0.1,0.4,0c0.1,0.3,0.3,0.4,0.2,0.6c-0.2,0.2,0,0.1-0.3,0c0,0,0,0-0.1,0c0.1,0.4,0,0.4,0.2,0.7
	c-0.1,0-0.3-0.1-0.4-0.1c-0.2-0.5-0.4-1.1-0.5-1.6c0,0-0.1,0-0.1-0.1h0c0.2,0.7,0.8,1.8,0.3,2.2c-0.3,0.3-0.8,0.3-1.1,0.6
	c0.2,0.3,0.3,0.7,0.4,1c-0.2,0.2-0.3,0.2-0.6,0.3c-0.1,0.2-0.3,0.3,0,0.5c0,0.1-0.1,0.1-0.2,0.2c-0.7,0.1-1.4-0.4-1.9-0.6
	c0,0,0,0-0.1,0.1c0.3,0.4,0.7,0.7,0.9,1.3c0.1,0,0.1,0.1,0.2,0.2v0.1c-0.4-0.1-0.7-0.1-1,0.1c-0.2-0.2-0.4-0.3-0.6-0.5
	c-0.4,0.2-0.9,0.1-1.2,0.4h-0.1c0.1,0.5,0.4,0.4,0.7,0.6c-0.1,0-0.2,0-0.3,0.1c0.6,0.5,1.4,0.4,2.2,0.7c0,0,2.5,2.4,2.6,2.5
	c-0.1-0.1-0.2-0.1-0.3-0.2c0,0,0,0-0.1,0.1c0.6,0.9,1.3,2.2,1.3,3.8c-0.9,0.3-3.1-0.3-4.3-0.4c-0.3,0-1.1,0.3-1.6,0.2
	c-0.2-0.1-0.3-0.3-0.7-0.2c-0.3-0.1-0.4,0.3-0.3,0.5c-0.3,0.1-0.6,0.1-0.7,0.3c-0.1,0-0.2,0.1-0.2,0.1c0,0.5,0.3,0.5,0.4,0.9
	c0.2,0,0.1,0,0.3-0.1c0.1,0.9,0.7,1.6,1,2.4c0.3,0.8,0.1,3,0,3.8c0.2,0.2,0.4,0.4,0.6,0.6c0.1-0.1,0.2-0.1,0.3-0.2
	c0.3,0.7,0.5,1.5,0.4,2.6c0.5-0.2,1.1,0.1,1.4,0c0.2-0.1,0.3-0.3,0.6-0.4c0.9-0.4,1.4,1.8,2.4,2c0.2-0.2,1-0.9,1-1.1
	c0.7,0,1.2-0.1,1.8,0.1c0-0.1,0.1-0.2,0.1-0.2c0.3,0,0.3,0.1,0.5,0.2c0.2-0.4,0.3-1,0.4-1.3c0.2-0.1,0.3-0.1,0.6-0.1
	c0-0.3-0.2-0.8,0-1.3c0.1-0.3,0.3-0.3,0.4-0.7c-1.6-1.1-0.2-2.5-0.6-3.4c0.3-0.4,0.6-0.3,1-0.6c0.2-0.2,0.5-0.7,0.7-0.9
	c-0.1-0.6-1-1.4-0.8-2.1c0.1-0.2,0.3-0.3,0.4-0.5c0.8,0.3,1.3,0.6,2,0.9c0.3-0.3,0.3-0.9,0.9-1.1c0-0.2,0.1-0.5,0.2-0.7
	c0,0,0-0.1,0-0.1c1.4,0.2,2.3,2.2,3,3.2c0,0,2,1.9,2.1,2c0.1,0,0.3-0.1,0.5,0.1c0.1,0.2,0.2,0.4,0.4,0.6c1.5,1.4,2,1.9,2.7,4.1
	c-0.2,0.1-0.5,0.1-0.6,0.4c-0.5,0-0.5-0.1-0.9-0.3c-0.1,0.1-0.1,0.1-0.1,0.3c-0.1-0.1-0.1-0.1-0.2-0.2c0,0,0,0-0.1,0
	c0,0.2-0.1,0.5,0.1,0.7c0.1,0.2,2,1.7,2.3,1.8h0.1c-0.1-0.8-0.5-1.2-0.5-2.2c0.1,0.1,0.2,0.2,0.3,0.2h0c0.1-0.4,0-0.9-0.1-1.3
	c0-0.3,0-0.2,0.2-0.3c-0.2-0.7-0.5-0.8-0.8-1.2c-0.1-0.4-0.2-0.8-0.3-1.2c0,0,0.1-0.1,0.1-0.1c0.2,0.3,0.8,1,1.2,1.2
	c-0.3-1.2-1.4-2.2-2.4-2.6c-0.1-0.2-0.2-0.4-0.1-0.7c-0.3-0.2-0.6,0-0.9-0.3c-0.8-0.6-1.1-1.6-1.7-2.4c-0.5-0.7-1.5-0.9-1.8-1.9
	c0-0.1,0.1-0.2,0.1-0.4c-0.1-0.3-0.4-0.4-0.5-0.7c0.3-0.1,0.3-0.1,0.4-0.3c0.1,0,0.1,0,0.2,0c0.2,0.3,0.6,1,0.7,1.3
	c0,0,0.1,0,0.1,0.1c0-0.1,0-0.3,0.1-0.4c0.1,0.2,0.2,0.4,0.3,0.6c0.1,0,0.1,0.1,0.2,0.1c-0.1-0.2-0.1-0.3-0.2-0.5
	c0.5,0.2,0.7,1,0.9,1.3c0.4,0.5,1,0.7,1.3,1.1c-0.1,0-0.1,0-0.2-0.1c0.1,0.3,0.2,0.3,0.4,0.5c0.1,0,0.2,0,0.3,0
	c-0.1-0.1-0.2-0.2-0.3-0.2c0,0,0.1,0,0.1,0c0.1,0.1,0.2,0.2,0.3,0.2c0,0,0,0.1,0,0.1c-0.1,0-0.2,0.1-0.3,0.1c0.2,0.2,0.2,0,0.5,0.2
	c0.6,0.3,1.5,1.3,1.9,1.8c0.3,0.8,0.6,1.6,0.9,2.3c0.4,0.7,1.2,1.4,1.5,2.1c0.2,0,0,0,0.2,0c0,0.1-0.1,0.3,0,0.5
	c0.2,0.2,0.5,0.5,0.8,0.6c-0.1,0.3-0.1,0.2-0.1,0.6c0.4,0.5,0.7,1,0.9,1.7c0.1,0,0.1,0.1,0.2,0.1h0.1c0-0.1-0.1-0.3-0.1-0.4
	c0,0,0,0,0.1,0c0.1,0.3,0.2,0.5,0.4,0.8c0,0,0.1,0,0.1,0.1c0-0.1-0.1-0.3-0.1-0.4c0.1,0.1,0.2,0.3,0.3,0.4h0.1v0h0v0
	c-0.3-0.5-0.5-1.1-0.8-1.7c0.1,0.1,0.1,0.2,0.2,0.2c0,0,0.1,0,0.1,0.1v-0.1c0.1-0.3-0.3-0.6-0.4-0.8c0,0,0.1,0,0.1,0
	c0.1,0.1,0.2,0.2,0.4,0.4c0,0,0,0,0,0c-0.1-0.2-0.2-0.4-0.3-0.7c0.2,0.2,0.4,0.4,0.6,0.6c-0.3-0.6-1-1.8-1.6-2.1
	c0.1-0.2,0-0.1,0.2-0.1c-0.2-0.7-1.2-1.3-1.3-2.3c0,0,0,0,0.1,0c0.1,0.6,0.5,0.4,0.7,0.7h0.1c-0.2-0.3-0.4-0.6-0.6-0.9
	c0.1-0.1,0.2-0.2,0.3-0.2c0.3-0.2,0.4,0.4,0.8,0.4c0,0.2,0.1,0.3,0.1,0.5c0.1-0.6,0-1.5-0.1-1.7c-0.3-0.3-0.5-0.8-0.7-1.2
	c-0.5-0.7-0.8-1.4-1.2-2.1c2.6,3.6,5,7.2,7,10.9c-14.9-35-49.6-59.6-90-59.6c-40.4,0-75.1,24.5-90,59.5
	C111.9,102.4,119,92.9,128.2,84.3z M275.6,101.1c-0.1-0.2,0-0.1-0.1-0.2v0.2H275.6z M164,223.3c0,0,0,0.1-0.1,0.1h0.1
	C164,223.3,164,223.3,164,223.3z M281.6,105.4L281.6,105.4c0-0.2,0.1-0.1-0.1-0.2C281.5,105.2,281.6,105.3,281.6,105.4z
	 M281.7,106.1c0.1,0.1,0.1,0.1,0.2,0.2v-0.2c-0.1,0-0.2-0.1-0.2-0.1V106.1z M281,105c0.1,0,0.1,0.1,0.2,0.1c-0.1-0.2,0-0.2-0.2-0.3
	V105z M282.5,107.9c-0.1-0.1-0.1-0.2-0.2-0.3v0.2C282.3,107.8,282.4,107.9,282.5,107.9z M176.3,234.9c0,0,0-0.1,0.1-0.1
	c-0.2,0-0.5-0.1-0.7-0.1C175.7,234.9,176,234.9,176.3,234.9z M204.2,203.1h0.3v0c-0.1-0.1-0.1-0.1-0.2-0.2c0,0-0.1,0.1-0.2,0.1
	C204.1,203,204.1,203,204.2,203.1z M163.4,222.7h0.2c-0.1-0.1-0.1-0.1-0.2-0.2V222.7z M174.2,235.2c-0.2-0.2-0.3-0.3-0.6-0.4
	C173.8,235.1,173.9,235.2,174.2,235.2z M204.8,202.9h-0.1v0.1C204.7,203,204.7,203,204.8,202.9z M272.1,101c0,0-0.1,0-0.1,0v0.2
	c0.1,0,0.2,0,0.3,0C272.2,101.1,272.2,101.1,272.1,101z M272.1,103.1c0,0,0.1,0.1,0.1,0.1h0c0-0.8-0.4-2.2-0.9-2.5
	c0.1,0.1,0.1,0.3,0.2,0.4c-0.1,0.1-0.2,0.1-0.3,0.2C271.2,102,271.7,102.9,272.1,103.1z M207.8,203.4c-0.1-0.8,1-0.5,1.6-0.8
	c0.4-0.3,0.4-1.3,1.1-1.6c1-0.5,1-0.8,1.7-1.3c0.3-0.2,0.6-0.2,0.8-0.5c0.7-1.2,0.2-1.7,1.7-2.2c0.2-0.8,0.4-1.4,0.9-2
	c0.2-0.3,0.5-0.5,0.7-0.8c0.3-0.7,0.1-1.3,0.4-2c0.3-0.7,0.9-1.2,1-2.1c0.7-0.3,1.2-0.2,1.9-0.7c0.9-0.8,1.8-1.6,2.7-2.4
	c0.3-0.1,0.6-0.1,1-0.2c0.4-0.3,0.8-0.6,1.2-1c1.5-1,2.7-1.8,3.3-3.7c0-0.4,0-0.7,0.1-1.1c0.2-0.7,1-5.1,0.9-5.1
	c-41.5-0.1-72.2,0.4-72.2,0.4c0.6,1.1,1.2,2.5,2.1,3.4c1.7,1.8,4.6,2.7,5.7,5c0.5,0.5,1,1,1.6,1.5c0,0.3-0.1,0.5-0.1,0.7
	c0.1,0.7,0.4,1.7,0.3,2.5c0,0.3-0.2,0.8-0.1,1.2c0.1,0.2,0.1,0.5,0.2,0.7c-0.1,0.7-0.4,1.5-0.4,2.4c-0.2,0.1-0.1,0-0.4,0
	c0,0.3,0,0.5,0,0.8h0.3c-0.1,0.5-0.1,1-0.2,1.4c0.1,0.5,0.1,1,0.2,1.4c-0.1,0.2-0.4,0.3-0.4,0.6c0,0.2,0.1,0.4,0.1,0.5
	c-0.1,1-0.3,1.8-0.6,2.4c-0.3,0.6,0,1.2-0.5,1.5c0.1,0.8,0.3,1.2,0.3,2c-0.2,0.1-0.1,0.1-0.4,0.1c-0.1,1.8,0.8,2.8,0.2,4.1
	c0.1,0,0.3,0.6,0.2,0.8c-0.4,1.2-1,2.3-1.1,3.7c-0.1,0-0.1-0.1-0.2-0.1c0,0.2,0,0.5,0,0.7c-0.2-0.1-0.3-0.1-0.5-0.2c0,0,0,0-0.1,0.1
	c0.1,1,0.6,2.1,1,2.9c0,1.1-0.7,1.5,0.1,2.8v0.2c-0.1-0.1-0.2-0.1-0.3-0.2c-0.2,0.5,0.1,1.1,0,1.7c0.2,0.2,0.4,0.3,0.7,0.4
	c0,0,0.1,0,0.2-0.1c0.1-0.6,0.1-1.3-0.2-1.7c0,0,0.1-0.1,0.1-0.1c0.1,0.1,0.3,0.1,0.4,0.2h0.1c0-0.2,0.1-0.2-0.1-0.2
	c0-0.1,0.1-0.1,0.1-0.2c0.1,0.1,0.2,0.2,0.3,0.3c-0.1,0.1-0.1,0.1-0.2,0.2c0.3,0.2,0.4,0.8,0.1,0.9c0.1,0.1,0.2,0.2,0.3,0.2
	c-0.2,0.9,0,1.6,0,2.5h-0.1c-0.1-0.3-0.3-1.1-0.2-1.2c-0.2-0.3-0.4-0.5-0.8-0.6c-0.2,0.2-0.3,0.6-0.3,1c0.1,0.1,0.3,0.3,0.4,0.4
	c0,0.3,0,0.5-0.1,0.8h-0.4v0c0.1,0.1,0.1,0.2,0.2,0.3c-0.1,0.1-0.3,0.2-0.4,0.3c0,0.1,0,0.1,0,0.2c0.1,0.1,0.3,0.1,0.4,0.2
	c0.1-0.1,0.1-0.1,0.2-0.2c0.2,0.2,0.7,0.3,1,0.5c-0.1,0-0.1,0-0.2-0.1c0.1,0.2,0.1,0.1,0.2,0.2c-0.1,0.2-0.1,0.4-0.2,0.5
	c-0.2-0.1-0.2-0.2-0.5-0.2v0.1c0.1,0.1,0.1,0.1,0.2,0.2c-0.1,0.1-0.2,0.1-0.3,0.2c0.3,0.5,0.4,1.3,0.7,1.8c0.3,0.1,0.5,0.3,0.7,0.4
	c-0.1-0.1-0.3-0.1-0.4-0.1v0.1c0.1,0.2,0.1,0.4,0.2,0.6c0.1,0,0.2,0.1,0.3,0.1c0.1-0.2,0.1-0.3,0.2-0.5c0.1,0.1,0.1,0.3,0.2,0.4
	h-0.2c0,0,0,0,0,0.1c0.2,0.3,0.3,0.5,0.3,0.9c0.2-0.1,0.4-0.1,0.6-0.2c0.1,0.1,0.1,0.1,0.3,0.2l-0.1,0.2c-0.2-0.1-0.4-0.1-0.5-0.2
	c0,0,0,0.1,0,0.1c0.2,0.3,0.5,0.6,0.8,0.8c0-0.1-0.1-0.2-0.1-0.2c0.3,0.3,0.6,0.5,0.9,0.8v0.1c-0.3-0.1-0.6-0.2-0.9-0.4
	c0.4,0.5,0.7,0.6,1.1,0.7c0,0.1,0,0-0.1,0.2c0.4,0.4,2.1,1.6,2.6,1.4c0,0.2,0,0.1-0.1,0.2c0.5,0.5,2.1,1.1,2.9,1.3v-0.1
	c-0.1-0.1-0.3-0.3-0.4-0.4c0.4,0.1,0.7,0.1,1,0.2c0,0.2,0,0.1,0.2,0.1c0,0-0.1-0.1-0.1-0.1c0.1,0,0.2,0.1,0.3,0.2v-0.2
	c0.2,0,0.5,0.1,0.7,0.1h0.1c0,0,0-0.1,0.1-0.1v-0.2c-1.5-0.2-1.9-1.5-3.1-1.8c0.1-0.1,0.1-0.1,0.2-0.2c-0.3-0.4-0.8-0.3-1.1-0.7
	c0,0-0.1,0-0.1-0.1c0.1,0,0.1-0.1,0.2-0.1c0.3,0.1,0.5,0.2,0.8,0.3v0c-0.4-0.5-1.1-0.9-1.2-1.8c0,0,0-0.1,0.1-0.1
	c0.2-0.1,0.5-0.1,0.7-0.2c0.2-0.2,0.1-0.5,0.1-0.9c0.3-0.2,1.1-0.4,1.3-0.7c0.1-0.1,0.1-0.5,0-0.8c-0.9-0.6-2.2-0.8-1.9-2
	c0.4-0.3,1-0.4,1.5-0.2h0.2c-0.1-0.2,0-0.1-0.2-0.2c0.1-0.2,0.2-0.2,0.4-0.3c0-0.3-0.1-0.6-0.2-0.9c0.2-0.3,0.4-0.5,1-0.5
	c-0.1-0.3-0.5-0.3-0.6-0.5c0,0-0.1,0-0.1-0.1c0.1-0.1,0.2-0.1,0.4-0.2c0.3,0.2,0.4,0.3,0.5,0.6c0.1,0,0.3,0,0.4,0.1
	c0-0.1,0.1-0.1,0.2-0.2c0-0.3,0-0.5-0.2-0.6c0,0-0.1-0.1-0.1-0.2c-0.2,0-0.4,0-0.6,0.1c0.1,0.1,0.2,0.1,0.3,0.2v0.1
	c-0.1,0-0.2-0.1-0.4-0.1c-0.2-0.1-0.2-0.3-0.5-0.4c-0.2-0.3-0.2-1-0.3-1.4c0.4-0.5,1.3,0.5,1.9,0.7c0.4,0,0.8,0,1.3-0.1
	c0.1-0.2,0.2-0.4,0.3-0.6c-0.1,0-0.1,0.1-0.2,0.1c-0.1-0.1-0.2-0.1-0.2-0.2c0.3-0.4,0.6-0.8,0.4-1.3c0.1,0,0.2,0.1,0.2,0.1h0.1
	c0-0.1-0.1-0.2-0.1-0.3c0.8,0.3,4.2,0.8,5.1,0.3c0.2-0.1,1-1.1,1.3-1.3c0-0.3,0-0.5,0-0.8c-0.5-0.2-0.7-0.2-0.7-0.8
	c0.1-0.1,0.3-0.3,0.4-0.4c-0.2-0.9-1.2-1.1-1.6-1.8c0.1-0.1,0.2-0.2,0.2-0.3c0.1,0,0.1,0,0.2-0.1c0.1,0.2,0.3,0.3,0.4,0.6
	c0.3,0.1,0.7,0.1,1,0.2c0.3,0.2,0.7,0.8,1.1,0.9c0.3,0.1,0.6-0.1,0.9,0c0.3,0.1,0.4,0.4,0.9,0.4c1.1-0.1,1.3-0.6,1.9-1.1
	c0.4-0.2,0.7-0.3,1.1-0.5c0.3-0.4,0.6-0.7,0.8-1.1c0.7-0.3,1.4-0.6,2.1-0.9c0.8-0.6,1.3-1.6,2.1-2.2c1-0.8,2.2-0.9,2.6-2.3
	c-0.1,0-0.2,0-0.2,0c0.2-0.5,0.2-1.2,0.5-2c0.2-0.6,4-2.5,5-2.2c0.2,0.2,0.4,0.3,0.6,0.5c0-0.1,0.1-0.2,0.1-0.4
	c-0.1,0-0.1,0-0.2-0.1v-0.1c0.5-0.1,1-0.8,1.4-0.7c0.2-0.2,0.2-0.1,0-0.3v-0.2c1,0,2.9,0.4,3.9,0.8
	C207.6,203.4,207.6,203.4,207.8,203.4z M273.9,106.9c-0.2-1.2-0.7-2.5-1.4-3.4c0,0-0.1-0.1-0.2-0.1c0,0.2-0.1,0.3-0.1,0.5
	c-0.2,0.1-0.1,0.1-0.4,0c0,0.6,0.7,1.2,0.9,1.7c0.2,0.4,0.1,0.9,0.2,1.2c0.2,0.1,0.3,0.3,0.7,0.4c0-0.1,0-0.3-0.1-0.4
	C273.6,106.8,273.7,106.8,273.9,106.9L273.9,106.9z M241.5,151.3l-6.4-0.2l0.1,16.3c0,0.2-0.1,0.3-0.2,0.4c-0.1,0.1-0.3,0.2-0.4,0.2
	l-9.8-0.3c-0.3,0-0.6-0.3-0.6-0.6l-0.2-44.9c0-0.2,0.1-0.3,0.2-0.4c0.1-0.1,0.3-0.2,0.4-0.2l24.6,0.7c8.2,0.3,12.9,5.5,12.9,14.3
	c0,8.5-4.5,12.1-8.7,13.5l10.4,17.8c0.1,0.2,0.1,0.4,0,0.6c-0.1,0.2-0.3,0.3-0.5,0.3h0l-11.6-0.4c-0.2,0-0.4-0.1-0.5-0.3
	L241.5,151.3z M243,141.5c0.4,0,0.7,0,1,0c2.9,0,4.6-0.4,5.6-1.4c0.7-0.7,1.1-1.9,1.1-3.8c0-2.1-0.4-4.1-5.3-4.2l-10.4-0.3l0,9.4
	L243,141.5z M195.4,83.5c0.1,0,0,0,0.1,0H195.4z M191.1,60.5v0.2c0.1,0,0.2,0,0.4,0v0C191.3,60.6,191.2,60.6,191.1,60.5z
	 M190.5,61.2c0.2,0,0.3,0,0.5,0.1c0,0,0,0,0-0.1c0,0,0-0.1,0-0.2c-0.3-0.1-0.6-0.2-0.9-0.2c0,0,0,0.1-0.1,0.1
	C190.2,61,190.3,61.1,190.5,61.2z M195.8,58.6c0.1-0.1,0.2-0.2,0.3-0.3v-0.2c-0.5-0.1-0.9-0.3-1.6-0.3c-0.2,0.1-0.5,0.2-0.7,0.2
	c0,0.1,0,0.2-0.1,0.3v0.1C194.1,58.6,195.3,58.9,195.8,58.6z M188,61.4c-0.2,0.1-0.4,0.1-0.5,0.2c0,0.1-0.1,0.1-0.1,0.2
	c0.1,0.1,0.1,0.2,0.2,0.3c0.4,0.1,0.6-0.2,1-0.3c0.1-0.1,0.1-0.1,0.2-0.2C188.4,61.5,188.3,61.4,188,61.4z M188.6,63
	C188.6,63,188.6,63,188.6,63c-0.1-0.1-0.3-0.1-0.4-0.1c0,0,0.1,0.1,0.1,0.1H188.6z M184.1,60.7c0,0.1,0,0.2,0,0.4
	c0.8-0.1,1.6,0,2.3-0.2c0,0,0-0.1,0.1-0.1c-0.5-0.1-1-0.2-1.5-0.2C184.7,60.6,184.4,60.6,184.1,60.7z M203.1,65L203.1,65
	c-0.1-0.1-0.1-0.1-0.3-0.2C202.9,64.9,202.9,64.9,203.1,65z M199.4,65.4c0,0-0.1,0.1-0.1,0.1c0.2,0.1,0.5,0.1,0.8,0.1
	c0,0,0-0.1,0.1-0.1c-0.1,0-0.2-0.1-0.3-0.2c-0.1,0-0.2,0-0.3-0.1C199.5,65.3,199.5,65.4,199.4,65.4z M191.8,61.3h0.2
	c0,0,0-0.1,0.1-0.1c-0.1-0.1-0.1-0.1-0.2-0.2c-0.2,0-0.4-0.1-0.5-0.1C191.4,61.1,191.6,61.2,191.8,61.3z M215,84l-0.2,0
	c-0.1,0-0.2,0.1-0.2,0.1c0,0.1,0,0.1-0.1,0.2h0.2c0.1,0,0.2-0.1,0.3-0.1V84z M196.3,61.8L196.3,61.8c-0.1-0.1-0.1-0.1-0.2-0.1
	c0,0,0,0.1,0,0.1C196.2,61.8,196.3,61.8,196.3,61.8z M197.9,64.5h-0.1v0.1C197.9,64.6,197.9,64.5,197.9,64.5z M289.2,140.6
	c-1.8-0.7-3.5-1.5-4.8-2.2c-2.2-1.2-3.3-2.3-3.3-3.4c0-0.3,0.1-0.8,0.6-1.3c0.5-0.5,1.7-1.2,4.1-1c6.7,0.4,14,4.8,16.1,6.2
	c0.2,0.1,0.4,0.1,0.6,0c0.2-0.1,0.3-0.3,0.3-0.5l-0.1-10c0-0.2-0.1-0.4-0.3-0.5c-3.4-2-10.6-5.1-16.6-5.4c-5.1-0.3-9.7,1.2-12.6,4.1
	c-2.2,2.2-3.3,5.2-3.3,8.7c0,10.6,9.6,14.5,16.6,17.4c1.7,0.7,3.2,1.3,4.5,2c2.2,1.1,3.3,2.1,3.3,3.1c0,0.9-0.2,1.5-0.8,2
	c-1.1,1.1-3.2,1.5-6.4,1.4c-3.4-0.2-9.4-2.9-15.7-7.1c-0.2-0.1-0.4-0.1-0.6,0c-0.2,0.1-0.3,0.3-0.3,0.5l0.1,10.4
	c0,0.2,0.1,0.4,0.3,0.5c2,1.3,9.3,5.7,16.2,6c0.6,0,1.3,0.1,1.9,0.1c5.7,0,10.1-1.5,12.9-4.3c2.5-2.5,3.7-5.9,3.7-10.1
	C305.5,147.4,296.1,143.5,289.2,140.6z M196.8,241.4c-43,0-79.6-25.6-93.1-61.3c12.9,38.3,45.1,68.1,93,68.1
	c45.2,0,80.8-30.2,93.5-68.9C277,215.4,240.2,241.4,196.8,241.4z M350.8,173.5c0.1,0.2,0.1,0.4-0.1,0.5c-0.1,0.2-0.3,0.2-0.5,0.2
	c0,0,0,0,0,0l-9.7-0.7c-0.2,0-0.4-0.2-0.5-0.4l-3.3-9l-15.7-1.2l-3.3,8.5c-0.1,0.2-0.3,0.4-0.6,0.4l-8.1-0.6c-0.2,0-0.4-0.1-0.5-0.3
	c-0.1-0.2-0.1-0.4,0-0.5l17.4-44c0.1-0.2,0.3-0.4,0.6-0.4l6.8,0.5c0.2,0,0.4,0.2,0.5,0.4L350.8,173.5z M333,153.9l-4-11l-4.1,10.4
	L333,153.9z M385.4,168c0-0.3-0.2-0.6-0.5-0.6l-19-1.7l-0.2-36c0-0.3-0.2-0.6-0.5-0.6l-8.4-0.8c-0.2,0-0.3,0-0.5,0.2
	c-0.1,0.1-0.2,0.3-0.2,0.4l0.3,45.4c0,0.3,0.2,0.6,0.5,0.6l27.8,2.6h0.1c0.1,0,0.3,0,0.4-0.2c0.1-0.1,0.2-0.3,0.2-0.4L385.4,168z
	 M179.1,69.3c0.2,0.3,1,0.6,1.3,0.7h0c0.1-0.2,0-0.3,0-0.5c-0.3-0.2-0.7-0.2-1.1-0.3C179.3,69.2,179.2,69.2,179.1,69.3z M95.4,124.4
	c-0.1-0.1-0.3-0.2-0.4-0.2l-7.3,0.5c-0.3,0-0.5,0.3-0.5,0.6l0.1,26.4L68,126.4c-0.1-0.2-0.3-0.2-0.5-0.2l-9.1,0.6
	c-0.3,0-0.5,0.3-0.5,0.6l0.2,44.9c0,0.2,0.1,0.3,0.2,0.4c0.1,0.1,0.3,0.2,0.4,0.2h0l7.3-0.5c0.3,0,0.5-0.3,0.5-0.6l-0.1-28.6
	l20.7,27.5c0.1,0.1,0.3,0.2,0.5,0.2l7.5-0.5c0.3,0,0.5-0.3,0.5-0.6l-0.2-44.9C95.6,124.7,95.5,124.6,95.4,124.4z M200.3,77.4
	c1.2,0.8,2.1,1.4,3.7,1.9c0,0,0.1,0,0.1,0v-0.2c-0.8-0.7-2.3-1.7-3.7-1.8C200.3,77.3,200.3,77.4,200.3,77.4z M201.1,82.5
	c0.1,0.2,0.2,0.2,0.4,0.3c0.5-0.1,0.4-0.4,1.1-0.3c0,0,0,0,0.1-0.1v-0.1c-0.4-0.1-2.6-0.6-2.6-0.6c-0.2-0.1-0.1,0-0.2-0.3
	c-0.3-0.2-0.1-0.1-0.1-0.5c-0.1,0-0.1,0-0.2-0.1c-0.2,0.1-0.4,0.2-0.6,0.3c0,0,0,0.1-0.1,0.1c0.6,0.5,1.1,0.8,1.9,1.1
	C201.2,82.5,201,82.4,201.1,82.5z M49.2,127.8c-0.1-0.1-0.3-0.2-0.5-0.1l-8.5,0.8c-0.3,0-0.5,0.3-0.5,0.6l0.1,26.9
	c0,6.5-2.6,10-7.8,10.5c-0.4,0.1-0.7,0.1-1.1,0.1c-4.4,0-6.7-3-6.7-8.9l-0.1-26.9c0-0.2-0.1-0.3-0.2-0.4c-0.1-0.1-0.3-0.2-0.4-0.2
	l-8.5,0.8c-0.3,0-0.5,0.3-0.5,0.6l0.1,27.2c0.1,11.8,5.2,18.1,15,18.1c0.8,0,1.6,0,2.5-0.1c15.2-1.5,17.4-13.9,17.4-21.2l-0.1-27.2
	C49.4,128.1,49.4,127.9,49.2,127.8z M188.4,85h-0.1v0.1C188.3,85.1,188.4,85.1,188.4,85z M106.1,169.7c0.1,0.1,0.3,0.2,0.4,0.2l0,0
	h0l9.7-0.5c0.3,0,0.6-0.3,0.6-0.6l-0.2-44.8c0-0.2-0.1-0.3-0.2-0.4c-0.1-0.1-0.3-0.2-0.4-0.2l-9.8,0.5c-0.3,0-0.5,0.3-0.5,0.6
	l0.3,44.8C105.9,169.4,106,169.5,106.1,169.7z M194.3,62.4c-0.1-0.1-0.4-0.2-0.6-0.2c0.1,0.2,0.2,0.2,0.4,0.2H194.3z M249.1,82.2
	C249.1,82.2,249,82.3,249.1,82.2l-0.1,0.1c0,0,0.1,0,0.1,0.1c0,0,0,0,0.1-0.1C249.1,82.3,249.1,82.3,249.1,82.2z M248.4,81.7
	c0-0.1,0-0.1,0-0.2l-0.1,0c0,0,0,0-0.1,0v0.1C248.3,81.7,248.4,81.7,248.4,81.7L248.4,81.7z M249.4,82.9c0.2-0.1,0.2-0.5,0-0.7
	c-0.1,0.2-0.2,0.3-0.4,0.4C249.1,82.8,249.2,82.8,249.4,82.9z M248.5,81.2c-0.1,0-0.2-0.1-0.2-0.1C248.3,81.2,248.4,81.2,248.5,81.2
	C248.4,81.3,248.4,81.2,248.5,81.2z M248.1,81.7v0.2h0.1C248.2,81.7,248.3,81.8,248.1,81.7z M251.8,84.6c0,0,0,0.1,0.1,0.1
	c0.1,0,0.2,0,0.3-0.1c0-0.1,0-0.1,0.1-0.2c-0.1-0.1-0.2-0.2-0.3-0.3C251.9,84.4,251.9,84.5,251.8,84.6z M211.3,83.8
	c0,0.1,0.1,0.1,0.1,0.2c0-0.1,0.1-0.1,0.1-0.1C211.5,83.9,211.4,83.8,211.3,83.8z M211.3,84.1c0.1,0,0.1,0,0.2,0.1
	c0,0,0.1,0,0.1-0.1c-0.1,0-0.1-0.1-0.2-0.1C211.3,84.1,211.3,84.1,211.3,84.1z M247.9,80.3c-0.1,0.2-0.1,0.1-0.2,0.3
	c0.3,0.3,0.9,0.5,1.2,0.5c0,0.1,0.1,0.1,0.1,0.2c-0.1,0.1-0.2,0.1-0.3,0.2c0.1,0.3,0.2,0.3,0.2,0.6c0.2,0,0.4-0.1,0.5-0.1
	c0-0.1,0-0.2,0.1-0.3v-0.1c0,0,0,0,0.1,0c0.1,0.6,0.4,1,0.6,1.6h0.2c0,0,0-0.1,0.1-0.1c0-0.1-0.1-0.2-0.1-0.3
	c0.1,0.1,0.2,0.1,0.3,0.2h0c-0.1-0.2-0.1-0.4-0.2-0.5c0.2,0.1,0.3,0.2,0.4,0.3c0.1,0.2,0.1,0.5,0,0.8c0.2,0.1,0.3,0.3,0.5,0.4h0.1
	c-0.1-0.1-0.1-0.1-0.1-0.2v0c0.2,0.1,0.3,0.1,0.5,0.2v-0.2c0.4,0.1,0.5,0.1,0.8-0.2c0.4,0.4,0.2,1.2,1.1,1c0,0.4,0.1,0.6,0.3,0.9
	c-0.4,0.3-0.8,0.1-1.3,0c0.1,0.3,0.2,0.3,0.4,0.5c-0.1,0.1-0.2,0.2-0.2,0.3c0,0,0,0.1,0.1,0.1c0.1-0.1,0.3-0.1,0.4-0.2
	c0.2,0.2,0.3,0.4,0.4,0.6c-0.1,0.3-0.3,0.5-0.7,0.5c-0.1,0.1-0.1,0.1-0.2,0.2c0.2,0.2,0.4,0.3,0.6,0.5c0.6-0.3,1.1,0.1,1.7,0.3
	c0.1-0.1,0.3-0.2,0.4-0.2c-0.1,0.2-0.1,0.2-0.1,0.4h-1.1c0,0.5-0.3,1-0.7,1.4v0.1c0.3,0,0.3,0,0.6,0.1c0.1-0.2,0.1-0.4,0.5-0.5
	c0.3-0.1,0.6,0.1,0.9,0.2c0-0.2,0-0.5,0.1-0.6c0,0,1.7,0.1,1.8,0.2h0.2c0-0.1-0.1-0.2-0.1-0.3c0.8,0,1.2,0,1.9-0.3
	c0,0,0-0.1,0.1-0.1c0-0.1-0.1-0.2-0.1-0.3c-0.3,0-0.5,0-0.7-0.1c0.1-0.2,0.4-0.6,0.3-0.9c-0.1-0.5-1.1-1.6-1.7-0.9
	c0,0-0.1,0-0.2-0.1c-0.3-0.7-0.8-1.5-1.7-2c-0.3-0.1-0.7-0.3-1-0.4c-0.9-0.8-1.3-1.5-2.6-1.5c0.1-0.1,0.3-0.2,0.4-0.3
	c-0.1-0.1-0.2-0.2-0.3-0.2c0.2-0.4,0-0.8,0-1.2c-0.5-0.5-1.4-0.4-2-0.2c0-0.3,0.1-0.2-0.2-0.3c0.1-0.2,0.2-0.4,0.4-0.5
	c0-0.1-0.1-0.2-0.1-0.4c-0.6-0.1-1.1,0.1-1.6,0c-0.1,0.1-0.1,0.2,0,0.4c-0.1,0.2-0.1,0.2,0.1,0.5c0,0-0.1,0-0.1,0.1
	c-0.2,0-0.1-0.1-0.2,0.1c0.1,0.2,0.2,0.4,0.3,0.5v0C248.3,80.7,248.1,80.5,247.9,80.3z M176.1,92.7h0.2c0,0-0.1-0.1-0.1-0.1
	C176.2,92.6,176.2,92.7,176.1,92.7z M211.6,84.2v0.1c0,0,0.1-0.1,0.1-0.1C211.6,84.2,211.6,84.2,211.6,84.2z M207.2,71.2L207.2,71.2
	c0.1,0,0.1-0.1,0.1-0.1c-0.1,0-0.2,0-0.3-0.1C207.1,71.2,207,71,207.2,71.2z M247.2,79.4c-0.1,0.1-0.3,0.3-0.4,0.4
	c0.2,0.2,0.3,0.3,0.3,0.4c0.1,0,0.1,0.1,0.2,0.1c0.1-0.1,0.3-0.2,0.4-0.3c0-0.2-0.1-0.4-0.1-0.5C247.4,79.5,247.3,79.4,247.2,79.4z
	 M264.7,83.9c0,0.1,0.1,0.2,0.1,0.3c0.1,0.1,0.3,0.1,0.4,0.1C265,84,264.9,84,264.7,83.9z M203.3,65.1
	C203.3,65.1,203.2,65.1,203.3,65.1c0.1,0.2,0.4,0.4,0.7,0.5c0.1-0.1,0.2-0.1,0.3-0.2c0-0.1-0.1-0.2-0.2-0.3
	c-0.2-0.1-0.3-0.1-0.4-0.1C203.6,65.1,203.6,65.1,203.3,65.1z M204.8,60C204.8,59.9,204.7,59.9,204.8,60c-0.1-0.1-0.1,0-0.1,0H204.8
	z M260.9,81.4c-0.1-0.2,0-0.1-0.2-0.2C260.8,81.3,260.9,81.4,260.9,81.4L260.9,81.4z M209.9,73.7C210,73.7,210,73.7,209.9,73.7
	L209.9,73.7c0-0.1-0.1-0.1-0.1-0.2C209.9,73.6,209.9,73.6,209.9,73.7z M247.3,81.2v0.1c0,0,0.1,0,0.2-0.1v-0.1L247.3,81.2
	L247.3,81.2z M261.1,86.7c0,0,0,0.1,0,0.1c0,0,0.1,0,0.1,0C261.2,86.7,261.2,86.8,261.1,86.7z M247.3,80.4c-0.1,0-0.1-0.1-0.2-0.1
	c-0.1,0-0.2,0.1-0.2,0.1c0.2,0.2,0.3,0.4,0.5,0.6c0,0,0.1,0,0.2,0C247.4,80.9,247.3,80.7,247.3,80.4z M246.8,84.9
	c-0.1,0-0.1,0-0.2,0.1c0.2,0.2,0.4,0.2,0.7,0.2c-0.2,0.2-0.2,0.2-0.4,0.4c0.4,0.6,0.8,0.2,1.4,0.4c-0.4,0.2-0.3,0.3-0.3,0.6
	c-0.2,0.2-0.2,0.1,0,0.3c-0.1,0.2-0.1,0.1-0.1,0.4c-0.2,0-0.3,0-0.4,0c-0.1,0.1-0.1,0.2-0.1,0.3c0.2,0,0.4-0.1,0.6-0.1
	c-0.1,0.1-0.3,0.2-0.4,0.2c0.6,1.6,2.9-0.4,3.9-0.4c0-0.7-0.3-1.8-1.1-2.2c0,0,0-0.1-0.1-0.1c0.3-0.1,0.3-0.3,0.5-0.4v-0.3
	c-0.4-0.4-0.7-0.4-1.1-0.9c-0.4-0.2-0.7-0.1-1,0.1c0-0.1,0-0.1,0.1-0.2c-0.2-0.1-0.3-0.1-0.5-0.2c-0.1,0.2-0.4,0.3-0.8,0.3
	c-0.1,0.4,0,0.4-0.2,0.6c0.2,0.2,0.4,0.1,0.7,0.1c-0.1,0.3-0.2,0.2-0.2,0.4c-0.5,0-1,0-1.5,0C246.6,84.9,246.6,84.7,246.8,84.9z"/>
</svg>
